<?xml version="1.0" encoding="UTF-8"?>
<svg xmlns="http://www.w3.org/2000/svg" width="1686" height="334" fill="none" viewBox="-123 0 1686 334">
  <g clip-path="url(#a)">
    <path fill="#101F54" d="M-113.15 150.762c12.041-11.498 26.028-20.141 41.911-25.878 16.154-5.761 32.603-8.617 49.299-8.617 17.261 0 31.765 2.191 43.56 6.574q18.063 6.168 29.18 19.722 11.082 13.149 16.031 33.683c3.57 13.419 5.344 29.448 5.344 48.063v103.118H10.539v-21.766H9.31c-5.197 8.494-13.15 15.068-23.837 19.722-10.417 4.654-21.769 6.993-34.106 6.993-8.224 0-16.72-1.108-25.461-3.275-8.767-2.191-16.844-5.762-24.231-10.686q-10.675-7.387-17.656-19.722c-4.679-8.249-7.018-18.369-7.018-30.434 0-14.797 3.965-26.715 11.918-35.751 8.225-9.036 18.617-16.029 31.224-20.953 12.88-4.925 27.112-8.224 42.724-9.849 15.612-1.65 30.806-2.463 45.605-2.463v-3.274c0-10.145-3.57-17.531-10.687-22.185q-10.675-7.387-26.3-7.387c-9.578 0-18.911 2.044-27.948 6.156-8.767 4.112-16.302 9.036-22.606 14.798zM10.54 238.27H1.92c-7.387 0-14.922.418-22.605 1.231-7.387.541-14.11 1.773-20.143 3.693-5.762 1.921-10.539 4.801-14.38 8.618-3.842 3.57-5.763 8.347-5.763 14.379 0 3.841.813 7.116 2.463 9.849 1.92 2.733 4.235 4.925 6.993 6.574q4.101 2.475 9.456 3.694 5.356.812 10.269.812c13.691 0 24.107-3.693 31.224-11.105 7.387-7.657 11.105-17.949 11.105-30.802zM274.887 224.727c0-6.574-1.231-13.001-3.694-19.304-2.191-6.303-5.466-11.917-9.85-16.841-4.112-4.925-9.185-8.914-15.193-11.918-6.033-3.003-12.879-4.53-20.537-4.53-7.954 0-14.923 1.502-20.956 4.53-6.033 3.004-11.105 6.993-15.193 11.918-4.112 4.653-7.264 10.144-9.456 16.423a65.8 65.8 0 0 0-2.881 19.303q0 9.861 2.881 19.723 3.288 9.455 9.456 16.841c4.112 4.925 9.185 8.913 15.193 11.917 6.033 3.004 13.002 4.531 20.956 4.531 7.658 0 14.529-1.502 20.537-4.531 6.033-3.004 11.106-6.992 15.193-11.917 4.384-4.924 7.659-10.538 9.85-16.841 2.463-6.304 3.694-12.73 3.694-19.304m2.462 102.699v-26.715h-.812c-6.575 10.415-16.031 18.491-28.343 24.228-12.042 5.466-24.92 8.224-38.612 8.224-15.341 0-29.032-3.004-41.098-9.036-12.066-6.033-22.335-13.961-30.806-23.835-8.224-10.144-14.528-21.766-18.911-34.914s-6.575-26.838-6.575-41.094 2.191-27.799 6.575-40.676c4.654-13.148 11.105-24.647 19.305-34.52 8.496-9.849 18.617-17.655 30.412-23.416 12.041-5.762 25.486-8.618 40.261-8.618 15.07 0 27.801 2.881 38.218 8.618 10.416 5.761 18.493 12.04 24.23 18.91h.813V16.842h67.373v310.584zM654.202 327.426V215.69c0-5.761-.419-11.228-1.231-16.423-.813-5.466-2.34-10.144-4.531-13.961-2.192-3.816-5.196-6.845-9.038-9.036-3.57-2.462-8.347-3.693-14.38-3.693-5.763 0-10.811 1.231-15.194 3.693-4.112 2.462-7.658 5.762-10.687 9.849-2.733 4.112-4.802 8.913-6.156 14.379-1.379 5.196-2.044 10.686-2.044 16.423v110.505h-67.373V210.741c0-11.769-2.339-21.101-6.993-27.946s-12.042-10.268-22.187-10.268c-10.687 0-19.035 4.236-25.068 12.73-5.762 8.495-8.619 18.91-8.619 31.221v110.923h-67.816V122.84h65.329v28.34h.813c2.462-4.383 5.466-8.618 9.037-12.73 3.842-4.112 8.348-7.657 13.568-10.686 5.196-3.274 10.958-5.884 17.262-7.805 6.575-1.92 13.691-2.881 21.374-2.881 14.8 0 27.26 3.004 37.381 9.037 10.416 6.032 18.493 14.65 24.23 25.878q10.269-16.03 26.299-25.484c10.687-6.304 23.689-9.455 39.03-9.455 13.963 0 25.61 2.61 34.918 7.805 9.579 4.924 17.262 11.499 23 19.722 5.762 7.953 9.849 16.99 12.337 27.109 2.733 9.849 4.112 19.575 4.112 29.178v126.533h-67.373zM840.662 122.84h-67.373v204.586h67.373zM1026.77 177.87c-3-.812-6.03-1.379-9.03-1.649a83 83 0 0 0-8.23-.419c-9.04 0-16.694 1.65-22.998 4.924-6.033 3.275-10.958 7.264-14.8 11.918-3.57 4.653-6.156 9.725-7.806 15.191-1.649 5.467-2.462 10.268-2.462 14.38v105.161h-67.373V122.84h64.91v29.571h.813c5.196-10.415 12.608-18.91 22.187-25.484s20.689-9.849 33.289-9.849c2.74 0 5.35.148 7.81.419 2.73.271 4.92.689 6.57 1.231zM1047.65 150.762c12.07-11.498 26.03-20.141 41.92-25.878 16.15-5.761 32.6-8.617 49.29-8.617 17.27 0 31.77 2.191 43.57 6.574 12.04 4.112 21.76 10.686 29.18 19.722 7.38 8.766 12.73 19.993 16.03 33.683 3.57 13.419 5.34 29.448 5.34 48.063v103.118h-61.64v-21.766h-1.23c-5.19 8.494-13.15 15.068-23.83 19.722-10.42 4.654-21.77 6.993-34.11 6.993-8.22 0-16.72-1.108-25.46-3.275-8.77-2.191-16.84-5.762-24.23-10.686-7.12-4.924-13-11.499-17.68-19.722s-7-18.344-7-30.409c0-14.798 3.97-26.715 11.92-35.751 8.23-9.037 18.62-16.029 31.23-20.954 12.88-4.924 27.11-8.224 42.72-9.849 15.61-1.649 30.83-2.462 45.61-2.462v-3.275c0-10.144-3.57-17.531-10.69-22.184-7.12-4.925-15.88-7.387-26.3-7.387-9.58 0-18.91 2.044-27.95 6.156-8.77 4.111-16.3 9.036-22.6 14.798zm123.69 87.508h-8.61c-7.39 0-14.93.418-22.61 1.231-7.39.541-14.11 1.773-20.14 3.693-5.77 1.921-10.54 4.801-14.38 8.618-3.85 3.57-5.77 8.347-5.77 14.379 0 3.841.82 7.116 2.47 9.849 1.92 2.733 4.23 4.925 6.99 6.574 2.73 1.65 5.89 2.881 9.46 3.694q5.355.812 10.26.812c13.7 0 24.11-3.693 31.23-11.105 7.39-7.657 11.1-17.949 11.1-30.802zM1352.29 16.842h-68.21v310.584h68.21zM1526.02 183.214c-5.47-5.195-11.92-9.578-19.31-13.148s-15.19-5.343-23.42-5.343c-6.3 0-12.19 1.231-17.68 3.693-5.19 2.463-7.8 6.722-7.8 12.73 0 5.762 2.88 9.849 8.61 12.336 6.04 2.462 15.62 5.195 28.77 8.224a146.5 146.5 0 0 1 23 6.992c7.95 3.004 15.07 6.993 21.37 11.917 6.3 4.925 11.38 10.957 15.19 18.073 3.84 7.116 5.77 15.611 5.77 25.484 0 12.877-2.61 23.834-7.81 32.871-5.2 8.765-12.04 15.881-20.54 21.372-8.22 5.466-17.53 9.455-27.95 11.917-10.41 2.462-20.8 3.693-31.22 3.693-16.72 0-33.15-2.61-49.3-7.805-15.88-5.466-29.18-13.419-39.87-23.834l37.8-39.839c6.04 6.574 13.42 12.04 22.19 16.423s18.07 6.574 27.95 6.574c5.46 0 10.81-1.231 16.03-3.693 5.47-2.733 8.22-7.387 8.22-13.961 0-6.303-3.27-10.957-9.85-13.961-6.57-3.004-16.84-6.155-30.83-9.455-7.11-1.649-14.23-3.841-21.37-6.574-7.12-2.733-13.57-6.426-19.31-11.104-5.46-4.654-9.99-10.416-13.56-17.261-3.58-6.845-5.35-15.068-5.35-24.646 0-12.336 2.61-22.727 7.81-31.221 5.19-8.766 11.92-15.882 20.14-21.372 8.23-5.466 17.26-9.455 27.11-11.917 10.15-2.734 20.15-4.112 30-4.112 15.34 0 30.26 2.462 44.79 7.386 14.8 4.654 27.26 11.77 37.38 21.372z"></path>
    <path fill="#0576F6" d="M849.107 40.257c0 11.499-4.112 21.102-12.337 28.759-7.954 7.657-17.533 11.499-28.761 11.499-5.763 0-11.229-1.108-16.425-3.275-4.925-1.92-9.308-4.654-13.15-8.224-3.841-3.57-6.845-7.658-9.037-12.336-2.191-4.924-3.275-10.267-3.275-16.029 0-5.466 1.084-10.686 3.275-15.61 2.192-4.925 5.196-9.184 9.037-12.73a43.4 43.4 0 0 1 13.15-9.036C796.78 1.083 802.271 0 808.009 0c11.228 0 20.807 3.841 28.761 11.499 8.225 7.682 12.337 17.26 12.337 28.758"></path>
  </g>
  <defs>
    <clipPath id="a">
      <path fill="#fff" d="M-123 0h1686v334H-123z"></path>
    </clipPath>
  </defs>
</svg>
